<?xml version="1.0" standalone="no"?>
<!DOCTYPE svg PUBLIC "-//W3C//DTD SVG 20010904//EN"
 "http://www.w3.org/TR/2001/REC-SVG-20010904/DTD/svg10.dtd">
<svg version="1.0" xmlns="http://www.w3.org/2000/svg"
 width="600.000000pt" height="600.000000pt" viewBox="0 0 600.000000 600.000000"
 preserveAspectRatio="xMidYMid meet">
<metadata>
Created by potrace 1.14, written by Peter Selinger 2001-2017
</metadata>
<g transform="translate(0.000000,600.000000) scale(0.100000,-0.100000)"
fill="#000000" stroke="none">
<path d="M2725 5990 c-195 -21 -337 -47 -515 -95 -118 -32 -289 -89 -355 -119
-16 -8 -52 -24 -80 -36 -521 -229 -1000 -643 -1312 -1135 -62 -98 -125 -212
-159 -285 -14 -30 -36 -77 -49 -105 -90 -190 -192 -537 -220 -747 -3 -24 -8
-59 -11 -78 -20 -141 -27 -525 -12 -680 52 -531 246 -1043 557 -1470 205 -281
485 -551 761 -734 98 -65 252 -156 264 -156 3 0 5 613 4 1361 -3 1350 -3 1362
-23 1373 -42 22 -120 71 -131 81 -7 5 -29 24 -49 40 -100 80 -204 249 -246
400 -30 107 -32 286 -5 395 66 260 245 464 496 563 106 42 164 51 305 50 276
-2 522 -140 669 -376 44 -71 91 -179 101 -234 2 -15 9 -50 14 -77 9 -48 7
-218 -3 -265 -52 -239 -188 -429 -390 -546 l-85 -50 -1 -1487 c0 -819 2 -1488
5 -1488 3 0 56 -11 118 -24 61 -14 132 -27 157 -30 25 -3 56 -8 70 -11 63 -13
202 -20 400 -20 229 0 291 4 465 30 109 16 412 87 444 104 9 5 18 9 21 9 8 1
29 8 110 37 110 38 119 42 301 133 413 204 778 508 1060 882 222 293 419 696
494 1007 3 10 14 56 25 102 18 76 47 225 55 291 27 208 27 646 1 790 -3 14 -7
47 -11 73 -5 42 -25 142 -55 277 -16 75 -91 300 -130 395 -122 293 -276 547
-488 805 -80 97 -325 332 -432 416 -146 113 -425 294 -453 294 -4 0 -7 -611
-7 -1357 l0 -1358 68 -37 c257 -141 420 -416 420 -709 0 -332 -212 -637 -525
-755 -96 -36 -189 -51 -306 -49 -357 7 -666 252 -758 603 -24 89 -32 250 -18
332 11 60 52 188 77 235 63 124 191 259 313 330 l79 47 0 1489 c0 819 -3 1489
-7 1490 -5 0 -15 2 -23 4 -71 16 -213 45 -245 49 -73 9 -130 17 -155 23 -41 8
-520 10 -595 3z"/>
</g>
</svg>
